<?xml version="1.0" encoding="utf-8"?>
<!-- Generator: Adobe Illustrator 25.3.1, SVG Export Plug-In . SVG Version: 6.00 Build 0)  -->
<svg version="1.1" id="Livello_1" xmlns="http://www.w3.org/2000/svg" xmlns:xlink="http://www.w3.org/1999/xlink" x="0px" y="0px"
	 viewBox="0 0 1026 1024" style="enable-background:new 0 0 1026 1024;" xml:space="preserve">
<style type="text/css">
	.st0{fill:#FFFFFF;}
</style>
<path class="st0" d="M513,2C231.3,2,2,231.3,2,513s229.2,511,511,511s511-229.2,511-511S794.8,2,513,2z M957.4,561.5
	c-0.1,0.4-0.2,0.9-0.2,1.3c-1.8,15.6-4.3,30.9-7.6,46v0H795.4c6.7-63.7,6.7-127.9,0-191.6h154.1v0c3.3,15.1,5.8,30.4,7.6,46
	c0,0.4,0.1,0.9,0.2,1.3C961,496.8,961,529.3,957.4,561.5z M683.7,926.1c47.9-62.1,84.3-149.9,102.8-253.4h143.6c0,0,0,0,0,0
	C886.1,787.3,797,878.9,683.7,926.1z M930.1,353.3C930.1,353.3,930.1,353.3,930.1,353.3l-143.6,0C767.9,249.8,731.6,162,683.7,99.9
	C797,147.2,886.1,238.7,930.1,353.3L930.1,353.3z M731,417.2c7.4,63.7,7.4,128,0,191.6H544.9V417.2L731,417.2L731,417.2z
	 M544.9,353.3V71.2c79.6,24,147,135.3,176.1,282.1L544.9,353.3L544.9,353.3z M544.9,672.7H721c-29.1,146.8-96.5,258.1-176.1,282.1
	V672.7L544.9,672.7z M95.9,672.7C95.9,672.7,95.9,672.7,95.9,672.7l143.6,0c18.6,103.5,54.9,191.3,102.8,253.4
	C229,878.9,140,787.3,95.9,672.7L95.9,672.7z M342.4,99.9c-47.9,62.1-84.3,149.9-102.8,253.4H95.9c0,0,0,0,0,0
	C140,238.7,229,147.2,342.4,99.9z M295,608.8c-7.4-63.7-7.4-128,0-191.6h186v191.6H295L295,608.8z M481.1,672.7v282.1
	c-79.6-24-146.9-135.3-176-282.1L481.1,672.7L481.1,672.7z M481.1,353.3H305c29.1-146.8,96.5-258.1,176-282.1V353.3L481.1,353.3z
	 M68.7,464.5c0-0.4,0.1-0.8,0.2-1.2c1.8-15.5,4.3-30.9,7.7-46.1v0h154.1c-6.7,63.7-6.7,127.9,0,191.6H76.5v0
	c-3.3-15.2-5.9-30.6-7.7-46.1c0-0.4-0.1-0.8-0.2-1.2C65,529.3,65,496.7,68.7,464.5z"/>
</svg>
